<svg width="128" height="128" viewBox="0 0 128 128" fill="none" xmlns="http://www.w3.org/2000/svg">
<g clip-path="url(#clip0_208_111)">
<path d="M73.273 64C73.273 65.2179 73.033 66.4238 72.5669 67.549C72.1008 68.6741 71.4176 69.6964 70.5564 70.5576C68.8171 72.2967 66.4582 73.2736 63.9985 73.2735C61.5389 73.2734 59.1801 72.2962 57.441 70.5569C55.7019 68.8176 54.7249 66.4586 54.725 63.999C54.7252 61.5394 55.7024 59.1806 57.4417 57.4414C59.181 55.7023 61.5399 54.7254 63.9995 54.7255C66.4592 54.7256 68.818 55.7028 70.5571 57.4422C72.2962 59.1815 73.2732 61.5404 73.273 64ZM105.164 40.227C103.151 36.7526 100.702 33.5505 97.875 30.699L87.148 36.887C83.8424 34.0649 80.0519 31.8663 75.961 30.398C72.3836 33.9896 69.4538 38.1725 67.301 42.762C79.238 41.949 91.562 46.273 103 55.21L109.75 51.312C108.698 47.4369 107.157 43.7125 105.164 40.227ZM64 111.523C68.0117 111.51 72.0056 110.991 75.887 109.977V97.602C79.9878 96.1528 83.7887 93.9655 87.102 91.148C85.7777 86.2538 83.6212 81.624 80.727 77.461C75.461 88.199 65.562 96.711 52.102 102.148V109.938C55.9822 110.981 59.982 111.515 64 111.523ZM22.836 40.238C20.8389 43.7192 19.2937 47.4409 18.238 51.313L28.961 57.5C28.168 61.773 28.161 66.16 28.938 70.438C33.8375 71.7414 38.9252 72.1894 43.977 71.762C37.3 61.836 34.887 49 36.898 34.625L30.148 30.727C27.3156 33.573 24.8584 36.7692 22.836 40.238Z" fill="white"/>
<path d="M64 0.125C28.723 0.125 0.125 28.723 0.125 64C0.125 99.277 28.723 127.875 64 127.875C99.277 127.875 127.875 99.277 127.875 64C127.875 28.723 99.277 0.125 64 0.125ZM64 8.301C94.71 8.301 119.7 33.289 119.7 64C119.7 94.71 94.71 119.7 64 119.7C33.29 119.7 8.3 94.71 8.3 64C8.3 33.29 33.29 8.301 64 8.301ZM64 16.461C59.9883 16.4771 55.9947 16.9979 52.113 18.011V30.387C48.0125 31.8345 44.2116 34.0201 40.898 36.836C42.2208 41.7307 44.3774 46.3609 47.273 50.523C52.539 39.789 62.437 31.273 75.898 25.836V18.05C72.0157 17.0162 68.0175 16.4819 64 16.46V16.461ZM89.09 56.1C87.4054 56.05 85.7194 56.0957 84.04 56.237C90.71 66.163 93.125 78.999 91.113 93.374L97.863 97.272C100.686 94.4203 103.139 91.2249 105.164 87.761C107.164 84.288 108.699 80.561 109.762 76.686L99.05 70.5C99.85 66.176 99.85 61.8 99.073 57.562C95.812 56.6941 92.462 56.2042 89.089 56.102L89.09 56.1ZM25 72.774L18.25 76.677C19.3108 80.549 20.8514 84.2732 22.836 87.763C24.8496 91.2364 27.2992 94.438 30.125 97.29L40.852 91.103C44.1569 93.9249 47.9476 96.122 52.039 97.587C55.6164 93.9968 58.5462 89.8153 60.699 85.227C48.762 86.04 36.438 81.712 25 72.774Z" fill="#00B4FF"/>
</g>
<defs>
<clipPath id="clip0_208_111">
<rect width="128" height="128" fill="white"/>
</clipPath>
</defs>
</svg>
