<svg width="153" height="48" viewBox="0 0 153 48" fill="none" xmlns="http://www.w3.org/2000/svg">
<g clip-path="url(#clip0_225_75)">
<path d="M60.0586 23.4573V1.144H75.1313V5.03355H64.8715V10.3505H74.131V14.24H64.8715V23.4573H60.0586ZM84.7408 23.7843C83.0143 23.7843 81.521 23.4246 80.2612 22.7057C79.0088 21.9792 78.0418 20.9697 77.36 19.6767C76.6783 18.3766 76.3373 16.8695 76.3373 15.1553C76.3373 13.4265 76.6783 11.9157 77.36 10.6228C78.0418 9.32265 79.0088 8.313 80.2612 7.59395C81.521 6.86763 83.0143 6.50442 84.7408 6.50442C86.4674 6.50442 87.9569 6.86763 89.2094 7.59395C90.4694 8.313 91.4396 9.32265 92.1217 10.6228C92.8037 11.9157 93.1442 13.4265 93.1442 15.1553C93.1442 16.8695 92.8037 18.3766 92.1217 19.6767C91.4396 20.9697 90.4694 21.9792 89.2094 22.7057C87.9569 23.4246 86.4674 23.7843 84.7408 23.7843ZM84.763 20.1888C85.5485 20.1888 86.2045 19.9709 86.7305 19.5351C87.2567 19.092 87.6532 18.4892 87.9199 17.7266C88.1941 16.9638 88.3312 16.0958 88.3312 15.1226C88.3312 14.1492 88.1941 13.2812 87.9199 12.5186C87.6532 11.7559 87.2567 11.153 86.7305 10.7099C86.2045 10.2669 85.5485 10.0453 84.763 10.0453C83.9702 10.0453 83.3032 10.2669 82.7623 10.7099C82.2287 11.153 81.8248 11.7559 81.5506 12.5186C81.2839 13.2812 81.1505 14.1492 81.1505 15.1226C81.1505 16.0958 81.2839 16.9638 81.5506 17.7266C81.8248 18.4892 82.2287 19.092 82.7623 19.5351C83.3032 19.9709 83.9702 20.1888 84.763 20.1888ZM81.3506 4.4343C80.7133 4.4343 80.1649 4.2164 79.7054 3.78059C79.246 3.33752 79.0163 2.81459 79.0163 2.21172C79.0163 1.59432 79.246 1.07136 79.7054 0.642812C80.1649 0.214273 80.7133 0 81.3506 0C81.9953 0 82.5398 0.214273 82.9846 0.642812C83.4367 1.07136 83.6627 1.59432 83.6627 2.21172C83.6627 2.81459 83.4367 3.33752 82.9846 3.78059C82.5398 4.2164 81.9953 4.4343 81.3506 4.4343ZM88.1534 4.4343C87.5161 4.4343 86.9677 4.2164 86.5082 3.78059C86.0488 3.33752 85.819 2.81459 85.819 2.21172C85.819 1.59432 86.0488 1.07136 86.5082 0.642812C86.9677 0.214273 87.5161 0 88.1534 0C88.7981 0 89.3428 0.214273 89.7874 0.642812C90.2393 1.07136 90.4658 1.59432 90.4658 2.21172C90.4658 2.81459 90.2393 3.33752 89.7874 3.78059C89.3428 4.2164 88.7981 4.4343 88.1534 4.4343ZM96.2237 23.4573V6.72233H100.814V9.6422H100.992C101.303 8.6036 101.825 7.81911 102.559 7.28891C103.293 6.75137 104.138 6.48264 105.094 6.48264C105.33 6.48264 105.586 6.49716 105.861 6.5262C106.134 6.55524 106.376 6.59518 106.583 6.64609V10.7645C106.361 10.6991 106.053 10.641 105.66 10.5901C105.268 10.5393 104.909 10.5138 104.582 10.5138C103.886 10.5138 103.264 10.6627 102.715 10.9606C102.174 11.2511 101.744 11.6579 101.425 12.1808C101.114 12.7038 100.958 13.3066 100.958 13.9894V23.4573H96.2237ZM114.528 23.7297C113.231 23.7297 112.057 23.4028 111.004 22.7491C109.959 22.0882 109.13 21.1185 108.515 19.84C107.907 18.5544 107.603 16.9783 107.603 15.1116C107.603 13.1941 107.918 11.5997 108.548 10.3287C109.178 9.05029 110.015 8.0951 111.06 7.46316C112.113 6.82398 113.264 6.50442 114.517 6.50442C115.473 6.50442 116.27 6.66424 116.907 6.98379C117.552 7.29616 118.07 7.68833 118.463 8.16053C118.863 8.62538 119.167 9.08296 119.375 9.53329H119.519V1.144H124.243V23.4573H119.574V20.7771H119.375C119.152 21.242 118.837 21.7032 118.43 22.1609C118.03 22.6112 117.508 22.9853 116.863 23.283C116.225 23.5809 115.447 23.7297 114.528 23.7297ZM116.029 20.0363C116.792 20.0363 117.437 19.8328 117.963 19.426C118.497 19.0122 118.904 18.4347 119.186 17.6937C119.475 16.9529 119.619 16.085 119.619 15.0899C119.619 14.0948 119.479 13.2304 119.197 12.4968C118.915 11.7632 118.507 11.1967 117.974 10.7972C117.441 10.3976 116.792 10.1979 116.029 10.1979C115.251 10.1979 114.595 10.4049 114.061 10.8189C113.527 11.233 113.124 11.8067 112.85 12.5404C112.575 13.274 112.438 14.1238 112.438 15.0899C112.438 16.0632 112.575 16.9239 112.85 17.6719C113.131 18.4129 113.536 18.9939 114.061 19.4152C114.595 19.8292 115.251 20.0363 116.029 20.0363ZM135.918 23.7843C134.162 23.7843 132.649 23.4356 131.382 22.7384C130.123 22.0337 129.152 21.0386 128.47 19.7529C127.789 18.4601 127.447 16.9311 127.447 15.166C127.447 13.4447 127.789 11.9339 128.47 10.6337C129.152 9.33354 130.111 8.32026 131.349 7.59395C132.594 6.86763 134.054 6.50442 135.729 6.50442C136.854 6.50442 137.903 6.6824 138.874 7.03824C139.853 7.38693 140.704 7.91349 141.431 8.61811C142.164 9.32265 142.735 10.2088 143.143 11.2765C143.55 12.337 143.754 13.5791 143.754 15.0027V16.2774H129.337V13.4011H139.296C139.296 12.7329 139.148 12.1409 138.852 11.6252C138.555 11.1094 138.144 10.7063 137.618 10.4158C137.099 10.118 136.496 9.96909 135.807 9.96909C135.088 9.96909 134.45 10.1325 133.894 10.4594C133.346 10.779 132.916 11.2112 132.605 11.7559C132.293 12.2934 132.134 12.8926 132.127 13.5536V16.2884C132.127 17.1164 132.283 17.8317 132.594 18.4347C132.912 19.0375 133.361 19.5024 133.938 19.8292C134.517 20.1561 135.202 20.3196 135.995 20.3196C136.521 20.3196 137.003 20.2469 137.44 20.1017C137.877 19.9563 138.252 19.7385 138.563 19.4479C138.874 19.1574 139.111 18.8014 139.274 18.3802L143.654 18.6634C143.432 19.6948 142.976 20.5956 142.286 21.3654C141.605 22.1281 140.723 22.7238 139.641 23.1524C138.566 23.5736 137.325 23.7843 135.918 23.7843ZM151.579 1.144V23.4573H146.845V1.144H151.579Z" fill="#DCDCDC"/>
<path d="M71.5652 35.6023L69.5287 36.1672C69.4006 35.8345 69.2116 35.5113 68.9618 35.1975C68.7185 34.8772 68.3854 34.6135 67.9628 34.4065C67.5401 34.1992 66.9989 34.0957 66.3392 34.0957C65.4362 34.0957 64.6837 34.2997 64.0817 34.7079C63.4862 35.1096 63.1883 35.6211 63.1883 36.2425C63.1883 36.795 63.3932 37.2313 63.8032 37.5514C64.213 37.8717 64.8535 38.1384 65.7245 38.3518L67.9148 38.8791C69.2341 39.1929 70.2172 39.6732 70.864 40.3197C71.5108 40.96 71.8342 41.7855 71.8342 42.7962C71.8342 43.6248 71.5909 44.3655 71.1041 45.0183C70.6238 45.6712 69.9514 46.1859 69.0868 46.5627C68.2222 46.9393 67.2167 47.1276 66.0703 47.1276C64.5653 47.1276 63.3196 46.8075 62.3333 46.1671C61.3471 45.5268 60.7226 44.5915 60.46 43.3612L62.6119 42.8338C62.8169 43.6122 63.2044 44.196 63.7744 44.5852C64.3507 44.9745 65.1032 45.169 66.0319 45.169C67.0886 45.169 67.9276 44.9493 68.5487 44.5099C69.1765 44.0641 69.4903 43.5306 69.4903 42.9091C69.4903 42.4069 69.3109 41.9863 68.9522 41.6475C68.5937 41.3022 68.0428 41.0448 67.2998 40.8753L64.8406 40.3104C63.4894 39.9964 62.4967 39.51 61.8626 38.8509C61.235 38.1855 60.9212 37.3537 60.9212 36.3556C60.9212 35.5396 61.1549 34.8177 61.6225 34.1899C62.0963 33.5622 62.74 33.0694 63.5534 32.7117C64.3732 32.3538 65.3018 32.1748 66.3392 32.1748C67.7995 32.1748 68.9459 32.4888 69.7784 33.1165C70.6174 33.7441 71.213 34.5729 71.5652 35.6023ZM81.6641 32.3632V34.2465H74.0174V32.3632H81.6641ZM76.2461 28.8981H78.5132V42.6832C78.5132 43.3108 78.6061 43.7817 78.7918 44.0956C78.9839 44.4031 79.2274 44.6103 79.5218 44.7171C79.823 44.8176 80.14 44.8677 80.473 44.8677C80.7227 44.8677 80.9276 44.8551 81.0878 44.83C81.2479 44.7987 81.376 44.7735 81.472 44.7547L81.9332 46.7509C81.7795 46.8075 81.5648 46.8639 81.2896 46.9204C81.0142 46.9831 80.6651 47.0145 80.2424 47.0145C79.6021 47.0145 78.9743 46.8796 78.3596 46.6098C77.7512 46.3398 77.2451 45.9285 76.8416 45.3762C76.4446 44.8237 76.2461 44.127 76.2461 43.2858V28.8981ZM94.3738 40.9129V32.3632H96.6412V46.8262H94.3738V44.3781H94.2202C93.8743 45.1125 93.3358 45.7371 92.6059 46.2519C91.876 46.7604 90.9538 47.0145 89.8394 47.0145C88.9171 47.0145 88.0975 46.8168 87.38 46.4214C86.6629 46.0195 86.0992 45.417 85.6894 44.6134C85.2794 43.8037 85.0745 42.7836 85.0745 41.5533V32.3632H87.3416V41.4027C87.3416 42.4572 87.6427 43.2984 88.2446 43.9261C88.853 44.5539 89.6281 44.8677 90.5698 44.8677C91.1335 44.8677 91.7062 44.7265 92.2889 44.4439C92.8778 44.1615 93.371 43.7284 93.7685 43.1446C94.1723 42.5607 94.3738 41.8168 94.3738 40.9129ZM106.365 47.1276C105.135 47.1276 104.05 46.8231 103.108 46.2142C102.167 45.5989 101.431 44.7327 100.899 43.6153C100.367 42.4917 100.102 41.164 100.102 39.6324C100.102 38.1132 100.367 36.795 100.899 35.6776C101.431 34.5603 102.171 33.6972 103.118 33.0883C104.066 32.4793 105.161 32.1748 106.404 32.1748C107.364 32.1748 108.123 32.3319 108.68 32.6457C109.244 32.9532 109.673 33.3048 109.967 33.7003C110.269 34.0896 110.502 34.4095 110.669 34.6606H110.861V27.5422H113.128V46.8262H110.938V44.604H110.669C110.502 44.8677 110.265 45.2004 109.958 45.6022C109.65 45.9976 109.212 46.3524 108.642 46.6662C108.072 46.9738 107.313 47.1276 106.365 47.1276ZM106.673 45.1314C107.582 45.1314 108.35 44.899 108.978 44.4346C109.606 43.9638 110.083 43.3141 110.409 42.4855C110.736 41.6505 110.9 40.687 110.9 39.5947C110.9 38.515 110.74 37.5703 110.419 36.7605C110.099 35.9445 109.625 35.3104 108.997 34.8585C108.369 34.4002 107.595 34.171 106.673 34.171C105.712 34.171 104.911 34.4128 104.271 34.8961C103.637 35.3731 103.16 36.0229 102.84 36.8452C102.526 37.6614 102.368 38.5779 102.368 39.5947C102.368 40.6242 102.529 41.5596 102.849 42.4006C103.176 43.2357 103.656 43.9011 104.29 44.397C104.93 44.8864 105.724 45.1314 106.673 45.1314ZM117.595 46.8262V32.3632H119.863V46.8262H117.595ZM118.748 29.9527C118.306 29.9527 117.925 29.8051 117.605 29.5102C117.291 29.2152 117.134 28.8604 117.134 28.4461C117.134 28.0318 117.291 27.6772 117.605 27.3822C117.925 27.0871 118.306 26.9395 118.748 26.9395C119.19 26.9395 119.568 27.0871 119.882 27.3822C120.202 27.6772 120.362 28.0318 120.362 28.4461C120.362 28.8604 120.202 29.2152 119.882 29.5102C119.568 29.8051 119.19 29.9527 118.748 29.9527ZM130.009 47.1276C128.677 47.1276 127.508 46.8168 126.503 46.1953C125.504 45.5739 124.723 44.7045 124.159 43.5871C123.602 42.4698 123.323 41.164 123.323 39.67C123.323 38.1634 123.602 36.8484 124.159 35.7247C124.723 34.6011 125.504 33.7285 126.503 33.1071C127.508 32.4856 128.677 32.1748 130.009 32.1748C131.341 32.1748 132.507 32.4856 133.506 33.1071C134.511 33.7285 135.293 34.6011 135.85 35.7247C136.414 36.8484 136.696 38.1634 136.696 39.67C136.696 41.164 136.414 42.4698 135.85 43.5871C135.293 44.7045 134.511 45.5739 133.506 46.1953C132.507 46.8168 131.341 47.1276 130.009 47.1276ZM130.009 45.1314C131.022 45.1314 131.854 44.8771 132.507 44.3686C133.161 43.8601 133.644 43.1916 133.957 42.363C134.272 41.5344 134.428 40.6368 134.428 39.67C134.428 38.7033 134.272 37.8025 133.957 36.9676C133.644 36.1327 133.161 35.4579 132.507 34.9432C131.854 34.4284 131.022 34.171 130.009 34.171C128.997 34.171 128.165 34.4284 127.511 34.9432C126.858 35.4579 126.375 36.1327 126.061 36.9676C125.747 37.8025 125.591 38.7033 125.591 39.67C125.591 40.6368 125.747 41.5344 126.061 42.363C126.375 43.1916 126.858 43.8601 127.511 44.3686C128.165 44.8771 128.997 45.1314 130.009 45.1314ZM150.608 35.6023L148.572 36.1672C148.444 35.8345 148.255 35.5113 148.004 35.1975C147.761 34.8772 147.428 34.6135 147.005 34.4065C146.584 34.1992 146.042 34.0957 145.382 34.0957C144.48 34.0957 143.727 34.2997 143.125 34.7079C142.529 35.1096 142.231 35.6211 142.231 36.2425C142.231 36.795 142.436 37.2313 142.846 37.5514C143.256 37.8717 143.896 38.1384 144.768 38.3518L146.957 38.8791C148.277 39.1929 149.26 39.6732 149.907 40.3197C150.554 40.96 150.878 41.7855 150.878 42.7962C150.878 43.6248 150.635 44.3655 150.147 45.0183C149.667 45.6712 148.995 46.1859 148.13 46.5627C147.266 46.9393 146.26 47.1276 145.113 47.1276C143.608 47.1276 142.362 46.8075 141.377 46.1671C140.39 45.5268 139.766 44.5915 139.503 43.3612L141.655 42.8338C141.86 43.6122 142.247 44.196 142.817 44.5852C143.394 44.9745 144.146 45.169 145.075 45.169C146.132 45.169 146.97 44.9493 147.592 44.5099C148.22 44.0641 148.533 43.5306 148.533 42.9091C148.533 42.4069 148.354 41.9863 147.995 41.6475C147.637 41.3022 147.086 41.0448 146.343 40.8753L143.883 40.3104C142.532 39.9964 141.539 39.51 140.906 38.8509C140.278 38.1855 139.964 37.3537 139.964 36.3556C139.964 35.5396 140.198 34.8177 140.666 34.1899C141.139 33.5622 141.783 33.0694 142.596 32.7117C143.416 32.3538 144.345 32.1748 145.382 32.1748C146.843 32.1748 147.989 32.4888 148.821 33.1165C149.66 33.7441 150.255 34.5729 150.608 35.6023Z" fill="#DCDCDC"/>
<path d="M0 48V36.35H4.14293V43.9391H43.3896V5.47005H26.8332V1.40952H47.5326V48H0Z" fill="#DCDCDC"/>
<path d="M0 31.4951V1.40952H21.8801V5.47005H4.14293V31.4951H0Z" fill="#FEBF0F"/>
<path d="M7.95044 19.8139V15.7534H17.5499L14.5682 19.8139H7.95044Z" fill="#FEBF0F"/>
</g>
<defs>
<clipPath id="clip0_225_75">
<rect width="153" height="48" fill="white"/>
</clipPath>
</defs>
</svg>
