<svg width="153" height="48" viewBox="0 0 153 48" fill="none" xmlns="http://www.w3.org/2000/svg">
<g clip-path="url(#clip0_65_65)">
<path d="M60.0587 23.4573V1.144H75.1314V5.03355H64.8716V10.3505H74.1311V14.24H64.8716V23.4573H60.0587ZM84.7409 23.7843C83.0144 23.7843 81.5211 23.4246 80.2613 22.7057C79.0089 21.9792 78.0419 20.9697 77.3601 19.6767C76.6784 18.3766 76.3374 16.8694 76.3374 15.1553C76.3374 13.4265 76.6784 11.9157 77.3601 10.6228C78.0419 9.32265 79.0089 8.313 80.2613 7.59395C81.5211 6.86763 83.0144 6.50442 84.7409 6.50442C86.4675 6.50442 87.957 6.86763 89.2095 7.59395C90.4695 8.313 91.4397 9.32265 92.1218 10.6228C92.8038 11.9157 93.1443 13.4265 93.1443 15.1553C93.1443 16.8694 92.8038 18.3766 92.1218 19.6767C91.4397 20.9697 90.4695 21.9792 89.2095 22.7057C87.957 23.4246 86.4675 23.7843 84.7409 23.7843ZM84.7631 20.1888C85.5486 20.1888 86.2046 19.9708 86.7306 19.5351C87.2568 19.092 87.6533 18.4892 87.92 17.7266C88.1942 16.9638 88.3313 16.0958 88.3313 15.1226C88.3313 14.1492 88.1942 13.2812 87.92 12.5186C87.6533 11.7559 87.2568 11.153 86.7306 10.7099C86.2046 10.2669 85.5486 10.0453 84.7631 10.0453C83.9703 10.0453 83.3033 10.2669 82.7624 10.7099C82.2288 11.153 81.8249 11.7559 81.5507 12.5186C81.284 13.2812 81.1506 14.1492 81.1506 15.1226C81.1506 16.0958 81.284 16.9638 81.5507 17.7266C81.8249 18.4892 82.2288 19.092 82.7624 19.5351C83.3033 19.9708 83.9703 20.1888 84.7631 20.1888ZM81.3507 4.4343C80.7134 4.4343 80.165 4.21639 79.7055 3.78059C79.2461 3.33752 79.0164 2.81458 79.0164 2.21172C79.0164 1.59432 79.2461 1.07136 79.7055 0.642812C80.165 0.214273 80.7134 0 81.3507 0C81.9954 0 82.5399 0.214273 82.9847 0.642812C83.4368 1.07136 83.6628 1.59432 83.6628 2.21172C83.6628 2.81458 83.4368 3.33752 82.9847 3.78059C82.5399 4.21639 81.9954 4.4343 81.3507 4.4343ZM88.1535 4.4343C87.5162 4.4343 86.9678 4.21639 86.5083 3.78059C86.0489 3.33752 85.8191 2.81458 85.8191 2.21172C85.8191 1.59432 86.0489 1.07136 86.5083 0.642812C86.9678 0.214273 87.5162 0 88.1535 0C88.7982 0 89.3429 0.214273 89.7875 0.642812C90.2394 1.07136 90.4659 1.59432 90.4659 2.21172C90.4659 2.81458 90.2394 3.33752 89.7875 3.78059C89.3429 4.21639 88.7982 4.4343 88.1535 4.4343ZM96.2238 23.4573V6.72233H100.814V9.64219H100.992C101.303 8.6036 101.826 7.81911 102.559 7.28891C103.293 6.75137 104.138 6.48264 105.094 6.48264C105.33 6.48264 105.586 6.49716 105.861 6.5262C106.134 6.55524 106.376 6.59518 106.583 6.64609V10.7645C106.361 10.699 106.053 10.641 105.66 10.5901C105.268 10.5393 104.909 10.5138 104.583 10.5138C103.886 10.5138 103.264 10.6627 102.715 10.9606C102.174 11.2511 101.744 11.6579 101.425 12.1808C101.115 12.7038 100.958 13.3066 100.958 13.9894V23.4573H96.2238ZM114.528 23.7297C113.231 23.7297 112.057 23.4028 111.004 22.7491C109.959 22.0882 109.13 21.1185 108.515 19.84C107.907 18.5544 107.603 16.9783 107.603 15.1116C107.603 13.1941 107.918 11.5997 108.548 10.3287C109.178 9.05029 110.015 8.09509 111.06 7.46316C112.113 6.82398 113.265 6.50442 114.517 6.50442C115.473 6.50442 116.27 6.66425 116.907 6.98379C117.552 7.29616 118.07 7.68832 118.463 8.16053C118.863 8.62537 119.167 9.08296 119.375 9.53329H119.519V1.144H124.243V23.4573H119.574V20.7771H119.375C119.153 21.242 118.837 21.7032 118.43 22.1609C118.03 22.6112 117.508 22.9853 116.863 23.283C116.225 23.5809 115.447 23.7297 114.528 23.7297ZM116.029 20.0363C116.792 20.0363 117.437 19.8328 117.963 19.4261C118.497 19.0122 118.904 18.4347 119.186 17.6937C119.475 16.9529 119.619 16.0849 119.619 15.0899C119.619 14.0948 119.479 13.2304 119.197 12.4968C118.915 11.7632 118.508 11.1967 117.974 10.7971C117.441 10.3976 116.792 10.1979 116.029 10.1979C115.251 10.1979 114.595 10.4049 114.061 10.8189C113.528 11.233 113.124 11.8067 112.85 12.5404C112.575 13.274 112.438 14.1238 112.438 15.0899C112.438 16.0632 112.575 16.9239 112.85 17.6719C113.131 18.4129 113.536 18.9939 114.061 19.4152C114.595 19.8292 115.251 20.0363 116.029 20.0363ZM135.918 23.7843C134.162 23.7843 132.649 23.4356 131.382 22.7383C130.123 22.0336 129.152 21.0385 128.47 19.7529C127.789 18.4601 127.447 16.9311 127.447 15.166C127.447 13.4447 127.789 11.9339 128.47 10.6337C129.152 9.33354 130.111 8.32026 131.349 7.59395C132.594 6.86763 134.054 6.50442 135.729 6.50442C136.854 6.50442 137.903 6.68239 138.874 7.03824C139.853 7.38693 140.705 7.91349 141.431 8.61811C142.164 9.32265 142.735 10.2088 143.143 11.2765C143.55 12.337 143.754 13.5791 143.754 15.0027V16.2774H129.337V13.4011H139.296C139.296 12.7329 139.148 12.1409 138.852 11.6252C138.555 11.1094 138.144 10.7063 137.618 10.4158C137.099 10.118 136.496 9.96909 135.807 9.96909C135.088 9.96909 134.45 10.1325 133.894 10.4594C133.346 10.779 132.916 11.2112 132.605 11.7559C132.294 12.2934 132.135 12.8926 132.127 13.5536V16.2883C132.127 17.1164 132.283 17.8317 132.594 18.4347C132.912 19.0375 133.361 19.5024 133.938 19.8293C134.517 20.1561 135.202 20.3196 135.995 20.3196C136.521 20.3196 137.004 20.2469 137.44 20.1017C137.877 19.9563 138.252 19.7385 138.563 19.4479C138.874 19.1574 139.111 18.8015 139.275 18.3802L143.654 18.6635C143.432 19.6948 142.976 20.5956 142.286 21.3654C141.605 22.1281 140.724 22.7238 139.641 23.1524C138.566 23.5736 137.325 23.7843 135.918 23.7843ZM151.58 1.144V23.4573H146.845V1.144H151.58Z" fill="#333333"/>
<path d="M71.5651 35.6023L69.5286 36.1672C69.4005 35.8345 69.2115 35.5112 68.9618 35.1974C68.7184 34.8772 68.3853 34.6135 67.9627 34.4065C67.54 34.1992 66.9989 34.0957 66.3392 34.0957C65.4362 34.0957 64.6836 34.2997 64.0817 34.7078C63.4862 35.1095 63.1883 35.621 63.1883 36.2425C63.1883 36.7949 63.3932 37.2313 63.8031 37.5514C64.2129 37.8716 64.8534 38.1383 65.7245 38.3518L67.9148 38.879C69.234 39.1928 70.2171 39.6731 70.8639 40.3196C71.5107 40.96 71.8341 41.7854 71.8341 42.7961C71.8341 43.6247 71.5908 44.3654 71.104 45.0182C70.6237 45.6712 69.9513 46.1858 69.0867 46.5626C68.2221 46.9393 67.2167 47.1275 66.0702 47.1275C64.5652 47.1275 63.3195 46.8074 62.3333 46.1671C61.347 45.5267 60.7225 44.5915 60.4599 43.3612L62.6118 42.8338C62.8169 43.6121 63.2043 44.1959 63.7743 44.5852C64.3506 44.9744 65.1031 45.169 66.0318 45.169C67.0885 45.169 67.9275 44.9492 68.5487 44.5099C69.1764 44.0641 69.4902 43.5305 69.4902 42.9091C69.4902 42.4069 69.3108 41.9863 68.9522 41.6474C68.5937 41.3021 68.0427 41.0447 67.2998 40.8752L64.8405 40.3103C63.4893 39.9964 62.4966 39.5099 61.8626 38.8508C61.235 38.1854 60.9212 37.3537 60.9212 36.3556C60.9212 35.5396 61.1549 34.8176 61.6224 34.1899C62.0963 33.5621 62.7399 33.0694 63.5534 32.7116C64.3731 32.3537 65.3018 32.1748 66.3392 32.1748C67.7994 32.1748 68.9459 32.4887 69.7784 33.1165C70.6173 33.7441 71.2129 34.5728 71.5651 35.6023ZM81.6641 32.3632V34.2464H74.0173V32.3632H81.6641ZM76.2461 28.898H78.5131V42.6832C78.5131 43.3108 78.606 43.7816 78.7917 44.0956C78.9839 44.4031 79.2273 44.6102 79.5218 44.717C79.823 44.8175 80.1399 44.8676 80.4729 44.8676C80.7227 44.8676 80.9275 44.855 81.0877 44.83C81.2478 44.7986 81.3759 44.7734 81.4719 44.7547L81.9332 46.7509C81.7794 46.8074 81.5648 46.8638 81.2895 46.9204C81.0141 46.9831 80.6651 47.0144 80.2424 47.0144C79.602 47.0144 78.9743 46.8796 78.3596 46.6097C77.7512 46.3397 77.2451 45.9284 76.8416 45.3761C76.4445 44.8237 76.2461 44.1269 76.2461 43.2857V28.898ZM94.3737 40.9129V32.3632H96.6411V46.8262H94.3737V44.378H94.2201C93.8742 45.1124 93.3357 45.737 92.6058 46.2518C91.8759 46.7603 90.9537 47.0144 89.8393 47.0144C88.917 47.0144 88.0974 46.8167 87.38 46.4213C86.6628 46.0195 86.0991 45.4169 85.6893 44.6134C85.2794 43.8037 85.0745 42.7835 85.0745 41.5532V32.3632H87.3416V41.4026C87.3416 42.4571 87.6426 43.2983 88.2446 43.9261C88.853 44.5538 89.628 44.8676 90.5697 44.8676C91.1334 44.8676 91.7061 44.7265 92.2889 44.4439C92.8778 44.1614 93.3709 43.7284 93.7684 43.1446C94.1722 42.5606 94.3737 41.8168 94.3737 40.9129ZM106.365 47.1275C105.135 47.1275 104.049 46.823 103.108 46.2142C102.167 45.5989 101.431 44.7326 100.899 43.6153C100.367 42.4916 100.102 41.164 100.102 39.6323C100.102 38.1131 100.367 36.7949 100.899 35.6776C101.431 34.5602 102.171 33.6971 103.118 33.0883C104.066 32.4793 105.161 32.1748 106.404 32.1748C107.364 32.1748 108.123 32.3318 108.68 32.6456C109.244 32.9531 109.673 33.3047 109.967 33.7003C110.269 34.0895 110.502 34.4095 110.669 34.6606H110.861V27.5422H113.128V46.8262H110.937V44.6039H110.669C110.502 44.8676 110.265 45.2003 109.958 45.6022C109.65 45.9976 109.212 46.3523 108.642 46.6661C108.072 46.9738 107.313 47.1275 106.365 47.1275ZM106.673 45.1313C107.581 45.1313 108.35 44.899 108.978 44.4346C109.606 43.9637 110.083 43.3141 110.409 42.4855C110.736 41.6504 110.899 40.687 110.899 39.5947C110.899 38.515 110.74 37.5703 110.419 36.7604C110.099 35.9444 109.625 35.3104 108.997 34.8584C108.369 34.4002 107.595 34.171 106.673 34.171C105.712 34.171 104.911 34.4128 104.271 34.8961C103.637 35.3731 103.16 36.0229 102.84 36.8452C102.525 37.6613 102.368 38.5778 102.368 39.5947C102.368 40.6241 102.529 41.5595 102.849 42.4006C103.176 43.2356 103.656 43.901 104.29 44.3969C104.93 44.8864 105.724 45.1313 106.673 45.1313ZM117.595 46.8262V32.3632H119.862V46.8262H117.595ZM118.748 29.9527C118.306 29.9527 117.925 29.8051 117.605 29.5102C117.291 29.2151 117.134 28.8604 117.134 28.4461C117.134 28.0318 117.291 27.6772 117.605 27.3821C117.925 27.0871 118.306 26.9395 118.748 26.9395C119.19 26.9395 119.568 27.0871 119.882 27.3821C120.202 27.6772 120.362 28.0318 120.362 28.4461C120.362 28.8604 120.202 29.2151 119.882 29.5102C119.568 29.8051 119.19 29.9527 118.748 29.9527ZM130.009 47.1275C128.677 47.1275 127.508 46.8167 126.503 46.1953C125.504 45.5738 124.722 44.7044 124.159 43.5871C123.602 42.4697 123.323 41.164 123.323 39.67C123.323 38.1634 123.602 36.8483 124.159 35.7247C124.722 34.601 125.504 33.7285 126.503 33.107C127.508 32.4856 128.677 32.1748 130.009 32.1748C131.341 32.1748 132.507 32.4856 133.506 33.107C134.511 33.7285 135.292 34.601 135.85 35.7247C136.414 36.8483 136.695 38.1634 136.695 39.67C136.695 41.164 136.414 42.4697 135.85 43.5871C135.292 44.7044 134.511 45.5738 133.506 46.1953C132.507 46.8167 131.341 47.1275 130.009 47.1275ZM130.009 45.1313C131.022 45.1313 131.853 44.8771 132.507 44.3686C133.161 43.8601 133.644 43.1915 133.957 42.3629C134.272 41.5343 134.428 40.6367 134.428 39.67C134.428 38.7032 134.272 37.8025 133.957 36.9676C133.644 36.1327 133.161 35.4578 132.507 34.9432C131.853 34.4284 131.022 34.171 130.009 34.171C128.997 34.171 128.165 34.4284 127.511 34.9432C126.858 35.4578 126.375 36.1327 126.061 36.9676C125.747 37.8025 125.591 38.7032 125.591 39.67C125.591 40.6367 125.747 41.5343 126.061 42.3629C126.375 43.1915 126.858 43.8601 127.511 44.3686C128.165 44.8771 128.997 45.1313 130.009 45.1313ZM150.607 35.6023L148.572 36.1672C148.443 35.8345 148.255 35.5112 148.004 35.1974C147.761 34.8772 147.428 34.6135 147.005 34.4065C146.583 34.1992 146.042 34.0957 145.382 34.0957C144.48 34.0957 143.727 34.2997 143.125 34.7078C142.529 35.1095 142.231 35.621 142.231 36.2425C142.231 36.7949 142.436 37.2313 142.846 37.5514C143.256 37.8716 143.896 38.1383 144.768 38.3518L146.957 38.879C148.277 39.1928 149.26 39.6731 149.907 40.3196C150.553 40.96 150.878 41.7854 150.878 42.7961C150.878 43.6247 150.634 44.3654 150.147 45.0182C149.667 45.6712 148.995 46.1858 148.13 46.5626C147.266 46.9393 146.26 47.1275 145.113 47.1275C143.608 47.1275 142.362 46.8074 141.377 46.1671C140.39 45.5267 139.766 44.5915 139.503 43.3612L141.655 42.8338C141.86 43.6121 142.247 44.1959 142.817 44.5852C143.394 44.9744 144.146 45.169 145.075 45.169C146.132 45.169 146.97 44.9492 147.592 44.5099C148.22 44.0641 148.533 43.5305 148.533 42.9091C148.533 42.4069 148.354 41.9863 147.995 41.6474C147.637 41.3021 147.086 41.0447 146.343 40.8752L143.883 40.3103C142.532 39.9964 141.539 39.5099 140.906 38.8508C140.278 38.1854 139.964 37.3537 139.964 36.3556C139.964 35.5396 140.198 34.8176 140.666 34.1899C141.139 33.5621 141.783 33.0694 142.596 32.7116C143.416 32.3537 144.345 32.1748 145.382 32.1748C146.843 32.1748 147.989 32.4887 148.821 33.1165C149.66 33.7441 150.255 34.5728 150.607 35.6023Z" fill="#333333"/>
<path d="M0 47.9999V36.3499H4.14293V43.939H43.3896V5.46996H26.8332V1.40942H47.5326V47.9999H0Z" fill="#333333"/>
<path d="M0 31.495V1.40942H21.8801V5.46996H4.14293V31.495H0Z" fill="#FEBF0F"/>
<path d="M7.95044 19.8139V15.7534H17.5499L14.5682 19.8139H7.95044Z" fill="#FEBF0F"/>
</g>
<defs>
<clipPath id="clip0_65_65">
<rect width="153" height="48" fill="white"/>
</clipPath>
</defs>
</svg>
