<svg width="66" height="36" viewBox="0 0 66 36" fill="none" xmlns="http://www.w3.org/2000/svg">
<path d="M3.20227 16.4C4.18227 16.36 4.90227 16.15 5.36227 15.77C5.82227 15.37 6.05227 14.81 6.05227 14.09C6.05227 13.55 5.95227 12.48 5.75227 10.88C5.73227 10.72 5.67227 10.21 5.57227 9.35C5.47227 8.47 5.42227 7.68 5.42227 6.98C5.42227 5.28 5.94227 3.96 6.98227 3.02C8.02227 2.06 9.41227 1.58 11.1523 1.58H13.3123V5.78H12.1423C11.5023 5.78 11.0423 5.92 10.7623 6.2C10.4823 6.48 10.3423 6.91 10.3423 7.49C10.3423 7.93 10.4223 8.93 10.5823 10.49C10.7623 12.43 10.8523 13.7 10.8523 14.3C10.8523 15.4 10.5823 16.31 10.0423 17.03C9.52227 17.75 8.72227 18.21 7.64227 18.41V18.47C8.72227 18.69 9.52227 19.16 10.0423 19.88C10.5823 20.58 10.8523 21.49 10.8523 22.61C10.8523 23.21 10.7623 24.48 10.5823 26.42C10.4223 27.94 10.3423 28.93 10.3423 29.39C10.3423 29.97 10.4823 30.4 10.7623 30.68C11.0423 30.98 11.5023 31.13 12.1423 31.13H13.3123V35.33H11.1523C9.41227 35.33 8.02227 34.85 6.98227 33.89C5.94227 32.95 5.42227 31.62 5.42227 29.9C5.42227 29.2 5.47227 28.42 5.57227 27.56C5.67227 26.68 5.73227 26.16 5.75227 26C5.95227 24.4 6.05227 23.33 6.05227 22.79C6.05227 22.11 5.82227 21.57 5.36227 21.17C4.90227 20.75 4.18227 20.52 3.20227 20.48V16.4ZM24.323 29.21C22.783 29.21 21.403 28.96 20.183 28.46C18.963 27.96 17.983 27.22 17.243 26.24C16.523 25.26 16.143 24.08 16.103 22.7H21.563C21.643 23.48 21.913 24.08 22.373 24.5C22.833 24.9 23.433 25.1 24.173 25.1C24.933 25.1 25.533 24.93 25.973 24.59C26.413 24.23 26.633 23.74 26.633 23.12C26.633 22.6 26.453 22.17 26.093 21.83C25.753 21.49 25.323 21.21 24.803 20.99C24.303 20.77 23.583 20.52 22.643 20.24C21.283 19.82 20.173 19.4 19.313 18.98C18.453 18.56 17.713 17.94 17.093 17.12C16.473 16.3 16.163 15.23 16.163 13.91C16.163 11.95 16.873 10.42 18.293 9.32C19.713 8.2 21.563 7.64 23.843 7.64C26.163 7.64 28.033 8.2 29.453 9.32C30.873 10.42 31.633 11.96 31.733 13.94H26.183C26.143 13.26 25.893 12.73 25.433 12.35C24.973 11.95 24.383 11.75 23.663 11.75C23.043 11.75 22.543 11.92 22.163 12.26C21.783 12.58 21.593 13.05 21.593 13.67C21.593 14.35 21.913 14.88 22.553 15.26C23.193 15.64 24.193 16.05 25.553 16.49C26.913 16.95 28.013 17.39 28.853 17.81C29.713 18.23 30.453 18.84 31.073 19.64C31.693 20.44 32.003 21.47 32.003 22.73C32.003 23.93 31.693 25.02 31.073 26C30.473 26.98 29.593 27.76 28.433 28.34C27.273 28.92 25.903 29.21 24.323 29.21ZM42.18 29.21C40.64 29.21 39.26 28.96 38.04 28.46C36.82 27.96 35.84 27.22 35.1 26.24C34.38 25.26 34 24.08 33.96 22.7H39.42C39.5 23.48 39.77 24.08 40.23 24.5C40.69 24.9 41.29 25.1 42.03 25.1C42.79 25.1 43.39 24.93 43.83 24.59C44.27 24.23 44.49 23.74 44.49 23.12C44.49 22.6 44.31 22.17 43.95 21.83C43.61 21.49 43.18 21.21 42.66 20.99C42.16 20.77 41.44 20.52 40.5 20.24C39.14 19.82 38.03 19.4 37.17 18.98C36.31 18.56 35.57 17.94 34.95 17.12C34.33 16.3 34.02 15.23 34.02 13.91C34.02 11.95 34.73 10.42 36.15 9.32C37.57 8.2 39.42 7.64 41.7 7.64C44.02 7.64 45.89 8.2 47.31 9.32C48.73 10.42 49.49 11.96 49.59 13.94H44.04C44 13.26 43.75 12.73 43.29 12.35C42.83 11.95 42.24 11.75 41.52 11.75C40.9 11.75 40.4 11.92 40.02 12.26C39.64 12.58 39.45 13.05 39.45 13.67C39.45 14.35 39.77 14.88 40.41 15.26C41.05 15.64 42.05 16.05 43.41 16.49C44.77 16.95 45.87 17.39 46.71 17.81C47.57 18.23 48.31 18.84 48.93 19.64C49.55 20.44 49.86 21.47 49.86 22.73C49.86 23.93 49.55 25.02 48.93 26C48.33 26.98 47.45 27.76 46.29 28.34C45.13 28.92 43.76 29.21 42.18 29.21ZM62.797 20.48C61.817 20.52 61.097 20.75 60.637 21.17C60.177 21.57 59.947 22.11 59.947 22.79C59.947 23.33 60.047 24.4 60.247 26C60.267 26.16 60.327 26.68 60.427 27.56C60.527 28.42 60.577 29.2 60.577 29.9C60.577 31.62 60.057 32.95 59.017 33.89C57.977 34.85 56.587 35.33 54.847 35.33H52.687V31.13H53.857C54.497 31.13 54.957 30.98 55.237 30.68C55.517 30.4 55.657 29.97 55.657 29.39C55.657 28.93 55.577 27.94 55.417 26.42C55.237 24.48 55.147 23.21 55.147 22.61C55.147 21.49 55.407 20.58 55.927 19.88C56.467 19.16 57.277 18.69 58.357 18.47V18.41C57.277 18.21 56.467 17.75 55.927 17.03C55.407 16.31 55.147 15.4 55.147 14.3C55.147 13.7 55.237 12.43 55.417 10.49C55.577 8.93 55.657 7.93 55.657 7.49C55.657 6.91 55.517 6.48 55.237 6.2C54.957 5.92 54.497 5.78 53.857 5.78H52.687V1.58H54.847C56.587 1.58 57.977 2.06 59.017 3.02C60.057 3.96 60.577 5.28 60.577 6.98C60.577 7.68 60.527 8.47 60.427 9.35C60.327 10.21 60.267 10.72 60.247 10.88C60.047 12.48 59.947 13.55 59.947 14.09C59.947 14.81 60.177 15.37 60.637 15.77C61.097 16.15 61.817 16.36 62.797 16.4V20.48Z" fill="#0D1321"/>
</svg>
