<?xml version="1.0" standalone="no"?>
<!DOCTYPE svg PUBLIC "-//W3C//DTD SVG 1.1//EN" "http://www.w3.org/Graphics/SVG/1.1/DTD/svg11.dtd">
<svg xmlns:inkscape="http://www.inkscape.org/namespaces/inkscape" xmlns:sodipodi="http://sodipodi.sourceforge.net/DTD/sodipodi-0.dtd" xmlns="http://www.w3.org/2000/svg" xmlns:svg="http://www.w3.org/2000/svg" width="270.9333190917969" height="31.75" viewBox="0 0 270.93333 31.75" version="1.1" id="svg5" xml:space="preserve" sodipodi:docname="tw-logo-color.svg" inkscape:version="1.2.1 (9c6d41e410, 2022-07-14)"><sodipodi:namedview id="namedview7" pagecolor="#ffffff" bordercolor="#000000" borderopacity="0.25" inkscape:showpageshadow="2" inkscape:pageopacity="0.0" inkscape:pagecheckerboard="0" inkscape:deskcolor="#d1d1d1" inkscape:document-units="mm" showgrid="false" inkscape:zoom="0.71624579" inkscape:cx="468.41462" inkscape:cy="69.110354" inkscape:window-width="2400" inkscape:window-height="1261" inkscape:window-x="2391" inkscape:window-y="-9" inkscape:window-maximized="1" inkscape:current-layer="text817"/><defs id="defs2"/><g inkscape:label="Layer 1" inkscape:groupmode="layer" id="layer1"><g aria-label="TECHNOWEBS" style="font-style:normal;font-variant:normal;font-weight:normal;font-stretch:normal;font-size:19.1324px;line-height:1.25;font-family:Poppins;-inkscape-font-specification:Poppins;letter-spacing:0px;word-spacing:0px;fill:#000000;fill-opacity:1;stroke:none;stroke-width:0.199296" id="text817" transform="translate(14.150938,-108.44145)"><path d="m 2.928672,139.25998 v -6.7315 H 0.18620608 q -3.28264628,0 -4.36301118,-1.24659 -0.8726023,-0.99726 -0.8726023,-3.73972 v -6.60684 h -8.3104986 v 11.71779 q 0,3.03334 2.119177,4.737 2.3269399,1.86986 6.7315041,1.86986 z m -16.288578,-30.04246 v 6.81461 H 6.5852897 l -0.083094,-6.81461 z" style="font-style:normal;font-variant:normal;font-weight:normal;font-stretch:normal;font-family:Comaro;-inkscape-font-specification:Comaro;stroke-width:0.432838;fill:#227096;fill-opacity:1" id="path819"/><path d="m 9.769898,120.93533 v 18.32465 H 29.7982 v -6.68995 H 18.080397 v -5.02786 H 29.7982 v -6.60684 z m 0,-11.71781 v 6.73152 h 20.069855 v -6.73152 z" style="font-style:normal;font-variant:normal;font-weight:normal;font-stretch:normal;font-family:Comaro;-inkscape-font-specification:Comaro;stroke-width:0.432838;fill:#227096;fill-opacity:1" id="path821"/><path d="m 53.81879,109.25909 q -10.720544,0 -15.66529,4.40455 -4.196802,3.73972 -4.196802,10.55434 0,7.10548 4.072145,10.76209 4.861641,4.363 15.789947,4.363 v -6.68995 q -5.775795,0 -7.936526,-0.99726 -3.781277,-1.7452 -3.781277,-7.39634 0,-5.44338 3.698171,-7.18858 2.243837,-1.03881 8.019632,-1.03881 z" style="font-style:normal;font-variant:normal;font-weight:normal;font-stretch:normal;font-family:Comaro;-inkscape-font-specification:Comaro;stroke-width:0.432838;fill:#227096;fill-opacity:1" id="path823"/><path d="m 56.678763,109.21752 v 30.04246 h 8.227393 v -11.75936 h 11.634698 v -6.56529 H 64.906156 v -11.71781 z" style="font-style:normal;font-variant:normal;font-weight:normal;font-stretch:normal;font-family:Comaro;-inkscape-font-specification:Comaro;stroke-width:0.432838;fill:#227096;fill-opacity:1" id="path825"/><path d="m 79.483941,109.21752 v 30.04246 h 8.310499 v -23.31094 h 2.700912 q 3.36575,0 4.446117,1.20502 0.872602,0.95569 0.872602,3.73973 v 18.36619 h 8.268949 v -23.22785 q 0,-3.03334 -2.16073,-4.86163 -2.326942,-1.95298 -6.648402,-1.95298 z" style="font-style:normal;font-variant:normal;font-weight:normal;font-stretch:normal;font-family:Comaro;-inkscape-font-specification:Comaro;stroke-width:0.432838;fill:#227096;fill-opacity:1" id="path827"/><path d="m 123.4731,116.03213 q 3.07489,0 5.19406,2.49316 2.16073,2.45159 2.16073,5.94199 0,3.49042 -2.16073,5.98356 -2.11917,2.45161 -5.19406,2.45161 -3.03333,0 -5.19406,-2.49316 -2.16073,-2.49313 -2.16073,-5.94201 0,-3.53195 2.16073,-5.98356 2.16073,-2.45159 5.19406,-2.45159 z m 0.29087,-7.23013 q -6.60685,0 -11.30228,4.52921 -4.65388,4.48769 -4.65388,10.88677 0,6.31598 4.69543,10.84519 4.69544,4.52923 11.26073,4.52923 6.60685,0 11.26072,-4.48766 4.65388,-4.48769 4.65388,-10.88676 0,-6.35753 -4.69543,-10.88677 -4.65388,-4.52921 -11.21917,-4.52921 z" style="font-style:normal;font-variant:normal;font-weight:normal;font-stretch:normal;font-family:Comaro;-inkscape-font-specification:Comaro;stroke-width:0.432838;fill:#227096;fill-opacity:1" id="path829"/><path d="m 163.96275,109.34218 -4.86164,8.31051 9.93105,21.52417 12.5073,-29.83468 h -7.60411 l -5.11096,11.59315 z m -20.44382,-0.12466 13.67077,30.12555 4.90319,-7.64564 -10.42968,-22.47991 z" style="font-style:normal;font-variant:normal;font-weight:normal;font-stretch:normal;font-family:Comaro;-inkscape-font-specification:Comaro;stroke-width:0.432838;fill:#1d8a59;fill-opacity:1" id="path831"/><path d="m 186.20568,120.93533 v 18.32465 h 20.0283 v -6.68995 h -11.71779 v -5.02786 h 11.71779 v -6.60684 z m 0,-11.71781 v 6.73152 h 20.06985 v -6.73152 z" style="font-style:normal;font-variant:normal;font-weight:normal;font-stretch:normal;font-family:Comaro;-inkscape-font-specification:Comaro;stroke-width:0.432838;fill:#1d8a59;fill-opacity:1" id="path833"/><path d="m 210.30939,109.17597 v 6.77307 l 8.31048,-0.0415 q 1.86987,0 3.32421,0.74796 1.49588,0.74794 1.49588,1.95296 -0.12467,1.16348 -1.7452,1.78677 -1.28812,0.49863 -3.07489,0.49863 l -8.31048,0.0415 v 6.52374 h 8.3936 q 2.03607,0 3.4904,0.74794 1.45435,0.74796 1.32968,1.99453 0,1.16347 -1.41277,1.7452 -1.41281,0.58174 -3.49043,0.58174 l -8.31048,0.0415 v 6.68995 h 8.47669 q 7.93654,0 11.51004,-2.65937 2.82558,-2.07763 2.82558,-5.77578 0,-2.3685 -1.12193,-3.94749 -1.08036,-1.57901 -3.32419,-2.65937 2.16074,-1.24657 2.90867,-2.6178 0.74794,-1.37123 0.74794,-4.0306 0,-3.73973 -2.45159,-5.73423 -3.28264,-2.65937 -11.26073,-2.65937 z" style="font-style:normal;font-variant:normal;font-weight:normal;font-stretch:normal;font-family:Comaro;-inkscape-font-specification:Comaro;stroke-width:0.432838;fill:#1d8a59;fill-opacity:1" id="path835"/><path d="m 238.14565,109.21752 v 1.91141 q 0,2.07764 0.49863,3.32421 0.24931,0.58173 1.41278,2.41004 l 6.81461,8.97533 q 1.70366,2.20229 1.70366,3.69818 0,0.41554 -0.16615,1.20502 -0.16614,0.78951 -0.91417,1.37124 -0.74793,0.54017 -2.65935,0.54017 h -8.3936 v 6.60686 h 8.22739 q 4.44612,0 6.10821,-0.45709 1.32968,-0.66484 1.95297,-0.91414 1.41278,-0.66485 2.28538,-1.86987 1.37124,-1.91141 1.37124,-4.86163 0,-2.86713 -0.9557,-5.06941 -0.49863,-1.16348 -1.45435,-2.41004 l -7.47945,-10.7621 q -0.45706,-0.54018 -0.62327,-1.4959 -0.16615,-0.95569 -0.16615,-2.20228 z" style="font-style:normal;font-variant:normal;font-weight:normal;font-stretch:normal;font-family:Comaro;-inkscape-font-specification:Comaro;stroke-width:0.432838;fill:#1d8a59;fill-opacity:1" id="path837"/></g></g></svg>